<?xml version="1.0" encoding="iso-8859-1"?>
<!-- Uploaded to: SVG Repo, www.svgrepo.com, Generator: SVG Repo Mixer Tools -->
<svg fill="#000000" height="800px" width="800px" version="1.1" id="Capa_1" xmlns="http://www.w3.org/2000/svg" xmlns:xlink="http://www.w3.org/1999/xlink" 
	 viewBox="0 0 511 511" xml:space="preserve">
<g>
	<path d="M471.5,28h-432C17.72,28,0,45.72,0,67.5v256C0,345.28,17.72,363,39.5,363h160c4.142,0,7.5-3.358,7.5-7.5
		s-3.358-7.5-7.5-7.5h-160C25.991,348,15,337.009,15,323.5v-256C15,53.991,25.991,43,39.5,43h432c13.509,0,24.5,10.991,24.5,24.5
		v256c0,4.142,3.358,7.5,7.5,7.5s7.5-3.358,7.5-7.5v-256C511,45.72,493.28,28,471.5,28z"/>
	<path d="M207.5,292h-144c-4.142,0-7.5,3.358-7.5,7.5s3.358,7.5,7.5,7.5h144c4.142,0,7.5-3.358,7.5-7.5S211.642,292,207.5,292z"/>
	<path d="M151,155.5v-32c0-12.958-10.542-23.5-23.5-23.5h-48C66.542,100,56,110.542,56,123.5v32c0,12.958,10.542,23.5,23.5,23.5h48
		C140.458,179,151,168.458,151,155.5z M71,155.5V147h8.5c4.142,0,7.5-3.358,7.5-7.5s-3.358-7.5-7.5-7.5H71v-8.5
		c0-4.687,3.813-8.5,8.5-8.5H96v49H79.5C74.813,164,71,160.187,71,155.5z M127.5,164H111v-49h16.5c4.687,0,8.5,3.813,8.5,8.5v8.5
		h-8.5c-4.142,0-7.5,3.358-7.5,7.5s3.358,7.5,7.5,7.5h8.5v8.5C136,160.187,132.187,164,127.5,164z"/>
	<path d="M56,251.5c0,4.142,3.358,7.5,7.5,7.5s7.5-3.358,7.5-7.5v-16c0-4.142-3.358-7.5-7.5-7.5s-7.5,3.358-7.5,7.5V251.5z"/>
	<path d="M80,235.5v16c0,4.142,3.358,7.5,7.5,7.5s7.5-3.358,7.5-7.5v-16c0-4.142-3.358-7.5-7.5-7.5S80,231.358,80,235.5z"/>
	<path d="M104,235.5v16c0,4.142,3.358,7.5,7.5,7.5s7.5-3.358,7.5-7.5v-16c0-4.142-3.358-7.5-7.5-7.5S104,231.358,104,235.5z"/>
	<path d="M128,235.5v16c0,4.142,3.358,7.5,7.5,7.5s7.5-3.358,7.5-7.5v-16c0-4.142-3.358-7.5-7.5-7.5S128,231.358,128,235.5z"/>
	<path d="M175,251.5v-16c0-4.142-3.358-7.5-7.5-7.5s-7.5,3.358-7.5,7.5v16c0,4.142,3.358,7.5,7.5,7.5S175,255.642,175,251.5z"/>
	<path d="M199,251.5v-16c0-4.142-3.358-7.5-7.5-7.5s-7.5,3.358-7.5,7.5v16c0,4.142,3.358,7.5,7.5,7.5S199,255.642,199,251.5z"/>
	<path d="M215.5,228c-4.142,0-7.5,3.358-7.5,7.5v16c0,4.142,3.358,7.5,7.5,7.5s7.5-3.358,7.5-7.5v-16
		C223,231.358,219.642,228,215.5,228z"/>
	<path d="M247,251.5v-16c0-4.142-3.358-7.5-7.5-7.5s-7.5,3.358-7.5,7.5v16c0,4.142,3.358,7.5,7.5,7.5S247,255.642,247,251.5z"/>
	<path d="M415.5,179c21.78,0,39.5-17.72,39.5-39.5S437.28,100,415.5,100h-48c-21.78,0-39.5,17.72-39.5,39.5s17.72,39.5,39.5,39.5
		H415.5z M343,139.5c0-13.509,10.991-24.5,24.5-24.5h48c13.509,0,24.5,10.991,24.5,24.5S429.009,164,415.5,164h-48
		C353.991,164,343,153.009,343,139.5z"/>
	<path d="M351.5,228C281.196,228,224,285.196,224,355.5S281.196,483,351.5,483S479,425.804,479,355.5S421.804,228,351.5,228z
		 M351.5,468C289.467,468,239,417.533,239,355.5S289.467,243,351.5,243S464,293.467,464,355.5S413.533,468,351.5,468z"/>
	<path d="M422.313,340.441c-4.119,0.435-7.106,4.126-6.671,8.246c2.056,19.48-4.699,38.587-18.533,52.421
		C384.926,413.291,368.729,420,351.5,420c-16.505,0-32.054-6.172-44.044-17.402h15.76c4.142,0,7.5-3.358,7.5-7.5s-3.358-7.5-7.5-7.5
		h-32c-4.142,0-7.5,3.358-7.5,7.5v32c0,4.142,3.358,7.5,7.5,7.5s7.5-3.358,7.5-7.5v-12.165C313.278,427.9,331.84,435,351.5,435
		c21.235,0,41.199-8.27,56.215-23.285c17.051-17.051,25.377-40.598,22.844-64.602C430.124,342.993,426.431,340.003,422.313,340.441z
		"/>
	<path d="M287.356,362.291c-2.049-19.472,4.707-38.571,18.535-52.399c24.636-24.636,64.397-25.121,89.649-1.49h-15.757
		c-4.142,0-7.5,3.358-7.5,7.5s3.358,7.5,7.5,7.5h32c4.142,0,7.5-3.358,7.5-7.5v-32c0-4.142-3.358-7.5-7.5-7.5s-7.5,3.358-7.5,7.5
		v12.166c-31.182-27.727-79.119-26.663-108.999,3.218c-17.044,17.043-25.371,40.581-22.847,64.575
		c0.405,3.853,3.66,6.716,7.45,6.716c0.262,0,0.527-0.014,0.794-0.042C284.802,370.101,287.79,366.41,287.356,362.291z"/>
</g>
</svg>